<?xml version="1.0" encoding="utf-8"?>
<!-- Source of truth: src/assets/icon/logo-only.svg -->
<svg xmlns="http://www.w3.org/2000/svg" viewBox="272 196 92 92" xmlns:bx="https://boxy-svg.com">
  <defs>
    <linearGradient id="color-0" gradientUnits="userSpaceOnUse" bx:pinned="true" gradientTransform="matrix(1, 0, 0, 1, -0.605931, -0.015988)">
      <stop style="stop-color: rgb(73, 125, 178)"/>
    </linearGradient>
    <radialGradient gradientUnits="userSpaceOnUse" cx="318.504" cy="222.639" r="9.883" id="gradient-0">
      <stop offset="0" style="stop-color: rgb(201, 215, 230);"/>
      <stop offset="1" style="stop-color: rgb(0% 29.729% 48.79%)"/>
    </radialGradient>
    <linearGradient gradientUnits="userSpaceOnUse" x1="318.812" y1="206.371" x2="318.812" y2="279.745" id="gradient-1" gradientTransform="matrix(0.999974, -0.00732, 0.004805, 0.656316, -1.040691, 85.886463)">
      <stop offset="0" style="stop-color: rgb(90, 142, 195);"/>
      <stop offset="1" style="stop-color: rgb(0% 29.729% 48.79%)"/>
    </linearGradient>
    <linearGradient gradientUnits="userSpaceOnUse" x1="318.812" y1="206.093" x2="318.812" y2="279.698" id="gradient-2" spreadMethod="repeat">
      <stop offset="0" style="stop-color: rgb(73, 125, 178)"/>
      <stop offset="1" style="stop-color: rgb(0% 29.729% 48.79%)"/>
    </linearGradient>
  </defs>
  <title>Ideas Solutions Mark</title>
  <path d="M 326.078 207.286 C 326.703 209.282 341.414 217.178 343.16 215.698 C 351.687 224.08 355.477 231.702 355.66 243.76 C 355.528 254.042 352.161 262.178 345.16 269.698 C 340.046 274.459 333.981 278.016 327.16 279.698 C 325.84 279.368 324.52 279.038 323.16 278.698 C 323.16 269.458 323.16 260.218 323.16 250.698 C 320.52 250.698 317.88 250.698 315.16 250.698 C 315.16 260.268 315.16 269.838 315.16 279.698 C 305.002 278.428 298.032 275.6 290.984 268.081 C 284.209 259.231 281.124 249.745 282.16 238.698 C 284.133 228.443 288.185 220.306 296.551 213.854 C 305.233 208.285 315.872 203.884 326.078 207.286 Z M 298.16 227.698 C 293.299 235.171 291.82 242.143 293.621 250.952 C 295.291 255.972 298.205 260.173 302.16 263.698 C 302.82 263.698 303.48 263.698 304.16 263.698 C 304.49 256.768 304.82 249.838 305.16 242.698 C 314.73 242.368 324.3 242.038 334.16 241.698 C 334.16 248.958 334.16 256.218 334.16 263.698 C 339.685 260.936 341.676 257.254 344.16 251.698 C 346.039 244.421 345.439 237.469 342.16 230.698 C 337.747 224.112 332.077 219.293 324.16 217.698 C 313.754 216.534 304.899 219.374 298.16 227.698 Z" style="stroke-width: 1; fill: url(&quot;#gradient-2&quot;);"/>
  <ellipse style=" transform-box: fill-box; transform-origin: 50.12% 48.6097%; fill: url(&quot;#gradient-0&quot;);" cx="319.094" cy="230.347" rx="9.883" ry="9.85"/>
  <path d="M 296.551 213.854 C 298.314 212.723 308.357 205.998 319.317 206.102 C 323.281 206.14 327.588 207.021 331.329 208.588 C 336.536 210.768 340.827 214.002 343.16 215.698 C 351.687 224.08 355.477 231.702 355.66 243.76 C 355.528 254.042 352.161 262.178 345.16 269.698 C 340.046 274.459 333.981 278.016 327.16 279.698 C 325.84 279.771 324.588 279.758 323.175 279.667 C 323.175 270.427 323.16 260.218 323.16 250.698 C 320.52 250.698 317.88 250.698 315.16 250.698 C 315.16 260.268 315.16 269.838 315.16 279.698 C 305.002 278.428 298.032 275.6 290.984 268.081 C 284.209 259.231 281.124 249.745 282.16 238.698 C 284.133 228.443 288.185 220.306 296.551 213.854 Z M 298.16 227.698 C 293.299 235.171 291.82 242.143 293.621 250.952 C 295.291 255.972 298.205 260.173 302.16 263.698 C 302.82 263.698 303.48 263.698 304.16 263.698 C 304.49 256.768 304.82 249.838 305.16 242.698 C 314.73 242.368 324.3 242.038 334.16 241.698 C 334.16 248.958 334.16 256.218 334.16 263.698 C 339.685 260.936 341.676 257.254 344.16 251.698 C 346.039 244.421 345.439 237.469 342.16 230.698 C 337.747 224.112 332.077 219.293 324.16 217.698 C 313.754 216.534 304.899 219.374 298.16 227.698 Z" style="stroke-width: 1; fill: url(&quot;#gradient-1&quot;);"/>
</svg>
